<svg id="visual" viewBox="0 0 960 540" width="960" height="540" xmlns="http://www.w3.org/2000/svg" xmlns:xlink="http://www.w3.org/1999/xlink" version="1.1"><rect x="0" y="0" width="960" height="540" fill="#E6FFFA"></rect><path d="M0 332L22.8 336.8C45.7 341.7 91.3 351.3 137 359.3C182.7 367.3 228.3 373.7 274 374.2C319.7 374.7 365.3 369.3 411.2 364.8C457 360.3 503 356.7 548.8 350.2C594.7 343.7 640.3 334.3 686 339.8C731.7 345.3 777.3 365.7 823 369C868.7 372.3 914.3 358.7 937.2 351.8L960 345L960 541L937.2 541C914.3 541 868.7 541 823 541C777.3 541 731.7 541 686 541C640.3 541 594.7 541 548.8 541C503 541 457 541 411.2 541C365.3 541 319.7 541 274 541C228.3 541 182.7 541 137 541C91.3 541 45.7 541 22.8 541L0 541Z" fill="#87dada"></path><path d="M0 362L22.8 364.5C45.7 367 91.3 372 137 376C182.7 380 228.3 383 274 385.3C319.7 387.7 365.3 389.3 411.2 391.2C457 393 503 395 548.8 391.8C594.7 388.7 640.3 380.3 686 381.8C731.7 383.3 777.3 394.7 823 396C868.7 397.3 914.3 388.7 937.2 384.3L960 380L960 541L937.2 541C914.3 541 868.7 541 823 541C777.3 541 731.7 541 686 541C640.3 541 594.7 541 548.8 541C503 541 457 541 411.2 541C365.3 541 319.7 541 274 541C228.3 541 182.7 541 137 541C91.3 541 45.7 541 22.8 541L0 541Z" fill="#69c9c2"></path><path d="M0 400L22.8 400.5C45.7 401 91.3 402 137 403.5C182.7 405 228.3 407 274 412C319.7 417 365.3 425 411.2 431.2C457 437.3 503 441.7 548.8 438.2C594.7 434.7 640.3 423.3 686 421.2C731.7 419 777.3 426 823 427.2C868.7 428.3 914.3 423.7 937.2 421.3L960 419L960 541L937.2 541C914.3 541 868.7 541 823 541C777.3 541 731.7 541 686 541C640.3 541 594.7 541 548.8 541C503 541 457 541 411.2 541C365.3 541 319.7 541 274 541C228.3 541 182.7 541 137 541C91.3 541 45.7 541 22.8 541L0 541Z" fill="#4bb7a9"></path><path d="M0 483L22.8 477C45.7 471 91.3 459 137 458C182.7 457 228.3 467 274 466.3C319.7 465.7 365.3 454.3 411.2 447.2C457 440 503 437 548.8 436.8C594.7 436.7 640.3 439.3 686 446.3C731.7 453.3 777.3 464.7 823 466.7C868.7 468.7 914.3 461.3 937.2 457.7L960 454L960 541L937.2 541C914.3 541 868.7 541 823 541C777.3 541 731.7 541 686 541C640.3 541 594.7 541 548.8 541C503 541 457 541 411.2 541C365.3 541 319.7 541 274 541C228.3 541 182.7 541 137 541C91.3 541 45.7 541 22.8 541L0 541Z" fill="#2ca68e"></path><path d="M0 499L22.8 496C45.7 493 91.3 487 137 488.7C182.7 490.3 228.3 499.7 274 502.7C319.7 505.7 365.3 502.3 411.2 499.3C457 496.3 503 493.7 548.8 494C594.7 494.3 640.3 497.7 686 498.7C731.7 499.7 777.3 498.3 823 498.3C868.7 498.3 914.3 499.7 937.2 500.3L960 501L960 541L937.2 541C914.3 541 868.7 541 823 541C777.3 541 731.7 541 686 541C640.3 541 594.7 541 548.8 541C503 541 457 541 411.2 541C365.3 541 319.7 541 274 541C228.3 541 182.7 541 137 541C91.3 541 45.7 541 22.8 541L0 541Z" fill="#009473"></path></svg>